#Comment line ignore any data following # character 
#Hierarchical Translation and Rotation (.htr) file 
[Header]	
#Header keywords are followed by a single value 
FileType HTR		#Single word string
DataType HTRS		#Translation followed by rotation and scale data
FileVersion 1		#integer
NumSegments 29		#integer
NumFrames 4		#integer
DataFrameRate 30		#integer, data frame rate in this file
EulerRotationOrder ZYX
CalibrationUnits mm
RotationUnits Degrees
GlobalAxisofGravity Y
BoneLengthAxis Y
ScaleFactor 1.00
[SegmentNames&Hierarchy]
#CHILD	PARENT
MASTER GLOBAL
weapon MASTER
back_slider weapon
front_bottom weapon
front_middle_part1 weapon
front_middle_part2 weapon
front_middle_part3 weapon
front_middle_part4 weapon
front_top weapon
wing_bottom_left weapon
wing_bottom_right weapon
wing_top_left weapon
wing_top_right weapon
front_bottom_rumble_left front_bottom
front_bottom_rumble_right front_bottom
back_rotate_bottom_left front_middle_part3
back_rotate_bottom_right front_middle_part3
back_rotate_top_left front_middle_part3
back_rotate_top_right front_middle_part3
front_middle_part3_left front_middle_part3
front_middle_part3_right front_middle_part3
wing_bottom_left_buckets_1 wing_bottom_left
wing_bottom_left_buckets_2 wing_bottom_left
wing_bottom_left_buckets_3 wing_bottom_left
wing_bottom_right_buckets wing_bottom_right
wing_top_left_buckets wing_top_left
wing_top_left_buckets_1 wing_top_left
wing_top_left_buckets_3 wing_top_left
wing_top_right_buckets wing_top_right
[BasePosition]
#SegmentName Tx, Ty, Tz, Rx, Ry, Rz, BoneLength
MASTER 0.000000 0.000000 0.000000 -90.000000 0.000000 0.000000 10.000000 
weapon 0.000000 0.000000 0.000000 0.000000 0.000000 0.000000 10.000000 
back_slider 0.000000 0.000000 0.000000 0.000000 0.000000 0.000000 10.000000 
front_bottom 0.000000 0.000000 0.000000 0.000000 0.000000 0.000000 10.000000 
front_middle_part1 0.000000 0.000000 0.000000 0.000000 0.000000 0.000000 10.000000 
front_middle_part2 0.000000 0.000000 0.000000 0.000000 0.000000 0.000000 10.000000 
front_middle_part3 0.000000 0.000000 0.000000 0.000000 0.000000 0.000000 10.000000 
front_middle_part4 0.000000 0.000000 0.000000 0.000000 0.000000 0.000000 10.000000 
front_top 0.000000 0.000000 0.000000 0.000000 0.000000 0.000000 10.000000 
wing_bottom_left 0.000000 0.000000 0.000000 0.000000 0.000000 0.000000 10.000000 
wing_bottom_right 0.000000 0.000000 0.000000 0.000000 0.000000 0.000000 10.000000 
wing_top_left 0.000000 0.000000 0.000000 0.000000 0.000000 0.000000 10.000000 
wing_top_right 0.000000 0.000000 0.000000 0.000000 0.000000 0.000000 10.000000 
front_bottom_rumble_left 0.000000 0.000000 0.000000 0.000000 0.000000 0.000000 10.000000 
front_bottom_rumble_right 0.000000 0.000000 0.000000 0.000000 0.000000 0.000000 10.000000 
back_rotate_bottom_left 0.000000 0.000000 0.000000 0.000000 0.000000 0.000000 10.000000 
back_rotate_bottom_right 0.000000 0.000000 0.000000 0.000000 0.000000 0.000000 10.000000 
back_rotate_top_left 0.000000 0.000000 0.000000 0.000000 0.000000 0.000000 10.000000 
back_rotate_top_right 0.000000 0.000000 0.000000 0.000000 0.000000 0.000000 10.000000 
front_middle_part3_left 0.000000 0.000000 0.000000 0.000000 0.000000 0.000000 10.000000 
front_middle_part3_right 0.000000 0.000000 0.000000 0.000000 0.000000 0.000000 10.000000 
wing_bottom_left_buckets_1 0.000000 0.000000 0.000000 0.000000 0.000000 0.000000 10.000000 
wing_bottom_left_buckets_2 0.000000 0.000000 0.000000 0.000000 0.000000 0.000000 10.000000 
wing_bottom_left_buckets_3 0.000000 0.000000 0.000000 0.000000 0.000000 0.000000 10.000000 
wing_bottom_right_buckets 0.000000 0.000000 0.000000 0.000000 0.000000 0.000000 10.000000 
wing_top_left_buckets 0.000000 0.000000 0.000000 0.000000 0.000000 0.000000 10.000000 
wing_top_left_buckets_1 0.000000 0.000000 0.000000 0.000000 0.000000 0.000000 10.000000 
wing_top_left_buckets_3 0.000000 0.000000 0.000000 0.000000 0.000000 0.000000 10.000000 
wing_top_right_buckets 0.000000 0.000000 0.000000 0.000000 0.000000 0.000000 10.000000 
#Beginning of Data. Separated by tabs
#Fr	Tx	Ty	Tz	Rx	Ry	Rz	SF
[MASTER]
12 0.000000 0.000000 0.000000 0.000000 0.000000 -0.000020 0.000000
13 0.000000 0.000000 0.000000 0.000000 0.000000 -0.000020 0.000000
14 0.000000 0.000000 0.000000 0.000000 0.000000 -0.000020 0.000000
15 0.000000 0.000000 0.000000 0.000000 0.000000 -0.000020 0.000000
[weapon]
12 0.000000 -79.014671 86.001648 0.000000 -0.000000 0.000000 116.788712
13 0.000000 -79.014671 86.001648 0.000000 -0.000000 0.000000 116.788712
14 0.000000 -79.014671 86.001648 0.000000 -0.000000 0.000000 116.788712
15 0.000000 -79.014671 86.001648 0.000000 -0.000000 0.000000 116.788712
[back_slider]
12 0.000076 -162.686539 -85.991974 0.000000 -0.000000 0.000000 184.015030
13 0.000114 -158.826309 -85.992126 0.000000 -0.000000 0.000000 180.611298
14 0.000076 -151.657211 -85.992126 0.000000 -0.000000 0.000000 174.340347
15 0.000076 -147.796997 -85.991974 0.000000 -0.000000 0.000000 170.992905
[front_bottom]
12 0.000038 568.650146 -272.998810 7.276703 -0.001551 179.998245 630.786316
13 0.000076 571.096191 -271.286926 7.360956 -0.001550 179.998245 632.255859
14 0.000000 575.638794 -268.107544 7.460078 -0.001548 179.998230 635.013062
15 0.000076 578.084656 -266.395630 7.559205 -0.001547 179.998230 636.512756
[front_middle_part1]
12 0.000000 519.313477 -85.992035 0.001218 -58.904625 0.001218 526.384949
13 0.000000 519.313477 -85.992035 0.001197 -67.197517 0.001197 526.384949
14 0.000000 519.313477 -85.992035 0.001183 -75.923332 0.001183 526.384949
15 0.000000 519.313477 -85.992035 0.001175 -85.035133 0.001175 526.384949
[front_middle_part2]
12 0.000000 477.040344 -85.992035 0.003391 49.505386 0.003391 484.728912
13 0.000000 477.040344 -85.992035 0.004232 57.798210 0.004232 484.728912
14 0.000000 477.040344 -85.992035 0.005769 66.525909 0.005769 484.728912
15 0.000000 477.040344 -85.992035 0.009385 75.633034 0.009385 484.728912
[front_middle_part3]
12 0.000114 -247.852005 -85.991974 0.000000 -0.000000 0.000000 262.345612
13 0.000076 -237.874802 -85.992126 0.000000 -0.000000 0.000000 252.940842
14 0.000076 -247.852036 -85.991974 0.000000 -0.000000 0.000000 262.345673
15 0.000038 -266.381317 -85.992279 0.000000 -0.000000 0.000000 279.917267
[front_middle_part4]
12 0.000000 -443.853668 -85.992035 0.000000 -0.000000 0.000000 452.106964
13 0.000000 -443.853668 -85.992035 0.000000 -0.000000 0.000000 452.106964
14 0.000000 -443.853668 -85.992035 0.000000 -0.000000 0.000000 452.106964
15 0.000000 -443.853668 -85.992035 0.000000 -0.000000 0.000000 452.106964
[front_top]
12 0.000000 523.450989 -157.672974 6.885247 0.001557 0.001756 546.682434
13 0.000000 523.450989 -157.672974 3.864979 0.001603 0.001715 546.682434
14 0.000000 523.450989 -157.672974 6.885260 0.001557 0.001756 546.682434
15 0.000000 523.450989 -157.672974 12.489505 0.001469 0.001830 546.682434
[wing_bottom_left]
12 -124.333710 235.191696 -217.766312 163.461380 53.250935 159.665146 343.796692
13 -124.333710 235.191696 -217.766312 163.461380 53.250935 159.665146 343.796692
14 -124.333710 235.191696 -217.766312 164.547379 53.482956 161.018936 343.796692
15 -124.333710 235.191696 -217.766312 165.648300 53.697090 162.387131 343.796692
[wing_bottom_right]
12 124.947586 235.191696 -217.766144 0.000000 54.999989 0.000000 344.019073
13 124.947586 235.191696 -217.766144 0.000000 54.999989 0.000000 344.019073
14 124.947586 235.191696 -217.766144 0.000000 54.999989 0.000000 344.019073
15 124.947586 235.191696 -217.766144 0.000000 54.999989 0.000000 344.019073
[wing_top_left]
12 -124.333710 235.191696 62.502743 -157.248306 -51.536911 151.828812 273.277527
13 -124.333710 235.191696 62.502743 -158.057022 -51.803421 152.860489 273.277527
14 -124.333710 235.191696 62.502743 -157.851456 -51.733589 152.594543 273.277527
15 -124.333710 235.191696 62.502743 -157.458694 -51.609436 152.096008 273.277527
[wing_top_right]
12 131.595657 235.191696 62.502682 -0.000000 -55.000015 0.000000 276.657074
13 131.595657 235.191696 62.502682 -0.000000 -55.000015 0.000000 276.657074
14 131.595657 235.191696 62.502682 -0.000000 -55.000015 0.000000 276.657074
15 131.595657 235.191696 62.502682 -0.000000 -55.000015 0.000000 276.657074
[front_bottom_rumble_left]
12 163.070297 263.743958 -16.969442 -129.881882 18.229330 75.387009 310.549133
13 163.070297 263.743958 -16.969442 -129.881882 18.229330 75.387009 310.549133
14 163.070297 263.743958 -16.969442 -129.881882 18.229330 75.387009 310.549133
15 163.070297 263.743958 -16.969442 -129.881882 18.229330 75.387009 310.549133
[front_bottom_rumble_right]
12 -163.070480 263.743835 -16.969442 -50.118145 18.229362 104.612976 310.549133
13 -163.070480 263.743835 -16.969442 -50.118145 18.229362 104.612976 310.549133
14 -163.070480 263.743835 -16.969442 -50.118145 18.229362 104.612976 310.549133
15 -163.070480 263.743835 -16.969442 -50.118145 18.229362 104.612976 310.549133
[back_rotate_bottom_left]
12 -38.067558 -195.870575 -38.097980 0.000000 -0.000000 0.000000 203.140045
13 -38.067558 -195.870575 -38.097980 0.000000 -0.000000 0.000000 203.140045
14 -38.067558 -195.870575 -38.097980 0.000000 -0.000000 0.000000 203.140045
15 -38.067558 -195.870575 -38.097980 0.000000 -0.000000 0.000000 203.140045
[back_rotate_bottom_right]
12 38.098610 -195.870575 -38.057903 0.000000 -0.000000 0.000000 203.138351
13 38.098610 -195.870575 -38.057903 0.000000 -0.000000 0.000000 203.138351
14 38.098610 -195.870575 -38.057903 0.000000 -0.000000 0.000000 203.138351
15 38.098610 -195.870575 -38.057903 0.000000 -0.000000 0.000000 203.138351
[back_rotate_top_left]
12 -38.074085 -195.870575 38.105885 0.000000 -0.000000 0.000000 203.142746
13 -38.074085 -195.870575 38.105885 0.000000 -0.000000 0.000000 203.142746
14 -38.074085 -195.870575 38.105885 0.000000 -0.000000 0.000000 203.142746
15 -38.074085 -195.870575 38.105885 0.000000 -0.000000 0.000000 203.142746
[back_rotate_top_right]
12 38.111603 -195.870575 38.079086 0.000000 -0.000000 0.000000 203.144760
13 38.111603 -195.870575 38.079086 0.000000 -0.000000 0.000000 203.144760
14 38.111603 -195.870575 38.079086 0.000000 -0.000000 0.000000 203.144760
15 38.111603 -195.870575 38.079086 0.000000 -0.000000 0.000000 203.144760
[front_middle_part3_left]
12 -90.176353 364.727234 0.463104 89.999939 -0.000006 -10.314108 375.709900
13 -90.176353 364.727234 0.463104 89.999565 -0.000019 -5.126138 375.709900
14 -90.176353 364.727234 0.463104 89.997849 0.000084 4.500817 375.709900
15 -90.176353 364.727234 0.463104 90.001221 -0.000103 9.686922 375.709900
[front_middle_part3_right]
12 91.046051 364.727081 0.046265 -90.000000 0.000003 180.000000 375.919159
13 91.046051 364.727081 0.046265 -90.000000 0.000003 180.000000 375.919159
14 91.046051 364.727081 0.046265 -90.000000 0.000003 180.000000 375.919159
15 91.046051 364.727081 0.046265 -90.000000 0.000003 180.000000 375.919159
[wing_bottom_left_buckets_1]
12 -47.610477 -288.454193 -9.889640 -0.000027 0.000020 -0.000035 292.524170
13 -47.610477 -288.454193 -9.889640 -0.000027 0.000020 -0.000035 292.524170
14 -47.610477 -288.454193 -9.889640 -0.000027 0.000020 -0.000035 292.524170
15 -47.610477 -288.454193 -9.889640 -0.000027 0.000020 -0.000035 292.524170
[wing_bottom_left_buckets_2]
12 -47.610565 -358.672546 -9.889595 -0.000031 -0.000003 -0.000031 361.953827
13 -47.610565 -358.672546 -9.889595 -0.000031 -0.000003 -0.000031 361.953827
14 -47.610565 -358.672546 -9.889595 -0.000031 -0.000003 -0.000031 361.953827
15 -47.610565 -358.672546 -9.889595 -0.000031 -0.000003 -0.000031 361.953827
[wing_bottom_left_buckets_3]
12 -47.610672 -428.104828 -9.889513 -0.000027 0.000020 -0.000035 430.857635
13 -47.610672 -428.104828 -9.889513 -0.000027 0.000020 -0.000035 430.857635
14 -47.610672 -428.104828 -9.889513 -0.000027 0.000020 -0.000035 430.857635
15 -47.610672 -428.104828 -9.889513 -0.000027 0.000020 -0.000035 430.857635
[wing_bottom_right_buckets]
12 -47.962635 -358.672546 9.386807 0.000027 0.000061 -0.000035 361.986908
13 -47.962635 -358.672546 9.386807 0.000027 0.000061 -0.000035 361.986908
14 -47.962635 -358.672546 9.386807 0.000027 0.000061 -0.000035 361.986908
15 -47.962635 -358.672546 9.386807 0.000027 0.000061 -0.000035 361.986908
[wing_top_left_buckets]
12 -45.484066 -358.586609 10.598831 0.000027 0.000000 -0.000031 361.615112
13 -45.484066 -358.586609 10.598831 0.000027 0.000000 -0.000031 361.615112
14 -45.484066 -358.586609 10.598831 0.000027 0.000000 -0.000031 361.615112
15 -45.484066 -358.586609 10.598831 0.000027 0.000000 -0.000031 361.615112
[wing_top_left_buckets_1]
12 -45.484005 -287.973450 10.598879 0.000027 0.000000 -0.000035 291.735931
13 -45.484005 -287.973450 10.598879 0.000027 0.000000 -0.000035 291.735931
14 -45.484005 -287.973450 10.598879 0.000027 0.000000 -0.000035 291.735931
15 -45.484005 -287.973450 10.598879 0.000027 0.000000 -0.000035 291.735931
[wing_top_left_buckets_3]
12 -45.484154 -426.601654 10.598794 0.000027 0.000000 -0.000035 429.150452
13 -45.484154 -426.601654 10.598794 0.000027 0.000000 -0.000035 429.150452
14 -45.484154 -426.601654 10.598794 0.000027 0.000000 -0.000035 429.150452
15 -45.484154 -426.601654 10.598794 0.000027 0.000000 -0.000035 429.150452
[wing_top_right_buckets]
12 -46.906902 -358.586700 -9.449236 -0.000044 -0.000038 -0.000035 361.765076
13 -46.906902 -358.586700 -9.449236 -0.000044 -0.000038 -0.000035 361.765076
14 -46.906902 -358.586700 -9.449236 -0.000044 -0.000038 -0.000035 361.765076
15 -46.906902 -358.586700 -9.449236 -0.000044 -0.000038 -0.000035 361.765076
